<?xml version="1.0" encoding="UTF-8"?>
<svg width="331.230549px" height="648.111938px" viewBox="0 0 331.230549 648.111938" version="1.1" xmlns="http://www.w3.org/2000/svg" xmlns:xlink="http://www.w3.org/1999/xlink">
    <title>monke-dark</title>
    <g id="Page-1" stroke="none" stroke-width="1" fill="none" fill-rule="evenodd">
        <g id="monke-dark" transform="translate(-281.690466, -164.000000)" fill="#FFFFFF">
            <path d="M305.690466,164 C318.9453,164 329.690466,174.745166 329.690466,188 L329.690466,284 C329.690466,307.272307 346.252491,326.676346 368.232946,331.068522 C371.145758,326.151577 374.929983,321.812832 379.372225,318.263018 C378.28176,315.04263 377.690466,311.590367 377.690466,308 C377.690466,293.092802 387.883838,280.566393 401.6807,277.010655 C412.595007,257.325038 433.586622,244 457.690466,244 L485.690466,244 C509.379826,244 530.06307,256.870708 541.12886,276.000785 L540.552749,276.003834 C518.195097,276.310146 511.585808,294.326202 511.585808,303.074392 L511.582771,302.759521 C511.415013,294.068293 501.690466,274.786058 476.690466,276 C457.3605,276 441.690466,291.670034 441.690466,311 L441.690466,321.095782 L441.697286,321.937576 C442.14681,349.662938 464.762197,372 492.594684,372 L529.690466,372 C539.14365,372 547.639451,367.900962 553.497429,361.383328 C562.272184,369.995772 569.520695,380.44116 574.598211,392.444441 L575.204837,393.911561 L611.16707,482.921211 C616.082765,495.087982 610.312544,508.919244 598.271996,514.012525 L597.905216,514.164182 C591.844178,516.613 585.370068,516.409931 579.768919,514.100862 C574.012895,511.727947 569.178775,507.130957 566.662245,500.902327 L530.700012,411.892677 C525.843443,399.872246 516.671069,390.890247 505.690792,386.011219 L505.690466,468 C505.690466,471.669258 505.415993,475.27441 504.886458,478.796043 C525.831342,492.708225 542.887475,512.906766 552.871219,537.974076 L553.465929,539.494881 C555.085664,543.714434 555.434429,548.109297 554.700043,552.257624 L539.74681,646.66822 C537.673298,659.759865 525.379508,668.691825 512.287863,666.618313 C499.196218,664.5448 490.264257,652.25101 492.33777,639.159365 L506.279427,551.13816 C500.570117,539.043211 492.134415,528.970928 482.004855,521.380995 C471.088274,531.26961 457.12545,537.853896 441.69241,539.560355 L441.690466,540 C441.690466,559.396437 446.00476,577.785216 453.72608,594.259071 L506.413039,687.000179 L506.358466,686.975901 L523.174151,716.101252 C540.847263,746.71198 530.359253,785.853766 499.748525,803.526878 C470.063108,820.665761 432.354596,811.320317 413.983607,782.8218 L414.182778,782.692901 C413.49093,781.907611 412.866319,781.042482 412.322899,780.101252 C407.904621,772.44857 410.526624,762.663123 418.179306,758.244845 C425.831988,753.826567 435.617434,756.44857 440.035712,764.101252 C440.305475,764.568495 440.548993,765.043688 440.766723,765.525125 L440.866066,765.461526 C450.051561,779.710784 468.905817,784.383506 483.748525,775.814065 C499.053889,766.977509 504.297894,747.406616 495.461338,732.101252 L431.461338,621.25 L431.733658,621.092977 C417.725732,597.313792 409.690466,569.595264 409.690466,540 C409.690466,538.636144 409.707531,537.276274 409.741458,535.920591 C401.121023,532.881505 393.252912,528.247329 386.491301,522.372759 C379.581369,533.192767 375.203051,545.789148 374.192376,559.323914 L418.752244,636.504417 C425.379661,647.98344 421.446657,662.66161 409.967634,669.289027 C398.488612,675.916444 383.810442,671.98344 377.183025,660.504417 L329.39386,577.730953 C327.218781,574.119659 325.967634,569.888929 325.967634,565.365978 L325.983511,563.329246 C326.511865,529.459597 340.195295,498.783036 362.149247,476.184201 C361.846676,473.49972 361.690466,470.768103 361.690466,468 L361.690109,378.672605 C316.286871,371.055208 281.690466,331.567816 281.690466,284 L281.690466,187.603116 C281.905621,174.531337 292.568181,164 305.690466,164 Z M534,332 C538.418278,332 542,333.790861 542,336 C542,338.209139 538.418278,340 534,340 C529.581722,340 526,338.209139 526,336 C526,333.790861 529.581722,332 534,332 Z M514,332 C518.418278,332 522,333.790861 522,336 C522,338.209139 518.418278,340 514,340 C509.581722,340 506,338.209139 506,336 C506,333.790861 509.581722,332 514,332 Z M409.690466,284 C396.435632,284 385.690466,294.745166 385.690466,308 C385.690466,321.254834 396.435632,332 409.690466,332 C410.214926,332 410.735457,331.983178 411.252042,331.949784 C408.547251,327.254376 407,321.807878 407,316 C407,304.071264 413.527015,293.666995 423.20525,288.164124 C419.356057,285.536477 414.702693,284 409.690466,284 Z M534,300 C538.418278,300 542,303.581722 542,308 C542,312.418278 538.418278,316 534,316 C529.581722,316 526,312.418278 526,308 C526,303.581722 529.581722,300 534,300 Z M480,299 C484.418278,299 488,302.581722 488,307 C488,311.418278 484.418278,315 480,315 C475.581722,315 472,311.418278 472,307 C472,302.581722 475.581722,299 480,299 Z"></path>
        </g>
    </g>
</svg>