<?xml version="1.0" encoding="UTF-8"?>
<svg width="944.562084px" height="368.030443px" viewBox="0 0 944.562084 368.030443" version="1.1" xmlns="http://www.w3.org/2000/svg" xmlns:xlink="http://www.w3.org/1999/xlink">
    <title>logo-dark</title>
    <g id="Page-1" stroke="none" stroke-width="1" fill="none" fill-rule="evenodd">
        <g id="type-dark" transform="translate(-315.000000, -339.000000)" fill="#FFFFFF" fill-rule="nonzero">
            <path d="M947.524719,346.643394 L934.736145,366.952317 C925.669344,361.242933 916.980932,361.848786 909.594038,367.90775 C901.364532,374.65785 896,387.243517 896,402.029476 L896,477.369967 L944.943278,477.370587 L945.067396,501.369946 L896,501.369946 L896,563.098967 L896.130432,563.09922 L896.130432,644.000967 C896.130432,665.662531 887.830189,685.135637 873.756873,696.679014 C858.436287,709.245442 838.472121,710.637566 820.605713,699.387049 L833.394287,679.078126 C842.461088,684.78751 851.1495,684.181657 858.536394,678.122694 C866.7659,671.372594 872.130432,658.786926 872.130432,644.000967 L872.13,611.807967 L872,611.808795 L872.130432,501.368748 L847.789906,501.368748 L848,477.370587 L872,477.369967 L872,402.029476 C872,380.591228 880.129986,361.296547 893.940145,349.710963 L894.373559,349.351429 C909.694145,336.785001 929.658311,335.392877 947.524719,346.643394 Z M1059.52472,346.643394 L1046.73614,366.952317 C1037.66934,361.242933 1028.98093,361.848786 1021.59404,367.90775 C1013.36453,374.65785 1008,387.243517 1008,402.029476 L1008,477.369967 L1056.94328,477.370587 L1057.0674,501.369946 L1008,501.369946 L1008,563.098967 L1008.13043,563.09922 L1008.13043,644.000967 C1008.13043,665.662531 999.830189,685.135637 985.756873,696.679014 C970.436287,709.245442 950.472121,710.637566 932.605713,699.387049 L945.394287,679.078126 C954.461088,684.78751 963.1495,684.181657 970.536394,678.122694 C978.7659,671.372594 984.130432,658.786926 984.130432,644.000967 L984.13,611.807967 L984,611.808795 L984.130432,501.368748 L959.789906,501.368748 L960,477.370587 L984,477.369967 L984,402.029476 C984,380.591228 992.129986,361.296547 1005.94014,349.710963 L1006.37356,349.351429 C1021.69415,336.785001 1041.65831,335.392877 1059.52472,346.643394 Z M682,387.000967 C709.790697,387.000967 734.527856,400.95465 751.641819,423.052129 L752,423.521967 L752,403.000967 L776,403.000967 L776,544.000967 C776,558.584379 781.218565,571.027368 789.257458,577.842016 L789.594038,578.122694 C796.980932,584.181657 805.669344,584.78751 814.736145,579.078126 L827.524719,599.387049 C809.658311,610.637566 789.694145,609.245442 774.373559,596.679014 C760.300243,585.135637 752,565.662531 752,544.000967 L752,497.000967 L751.990467,495.566267 C751.368507,448.797737 720.393334,411.75591 683.142273,411.012362 L682,411.000967 C656.708734,411.000967 634.178507,427.744952 621.868985,453.000485 L595.812365,453.000529 C610.230902,414.300436 643.128426,387.000967 682,387.000967 Z M728,477.000967 L728,501.000967 L612.074315,501.001101 C613.788394,547.025332 644.928054,583.000967 682,583.000967 C693.693983,583.000967 704.981257,579.462195 715.110419,572.741285 L728.379638,592.739481 C714.390178,602.021779 698.508549,607.000967 682,607.000967 C630.728358,607.000967 589.85015,559.506349 588.061074,501.000983 L315,501.000967 L315,477.000967 L728,477.000967 Z M828,477.000967 L828,501.000967 L792,501.000967 L792,477.000967 L828,477.000967 Z M1165,387.000967 C1214.68354,387.000967 1255.01117,431.776936 1258.72319,488.468179 L1259.56208,501.280095 L1246.72276,501.252205 L1113.05262,501.000939 L1113.10475,477.000995 L1233.137,477.221967 L1233.0806,476.920552 C1225.71185,439.102015 1198.08028,411.617296 1166.08028,411.011194 L1165,411.000967 C1126.86058,411.000967 1095,449.078244 1095,497.000967 C1095,544.923689 1126.86058,583.000967 1165,583.000967 C1176.69398,583.000967 1187.98126,579.462195 1198.11042,572.741285 L1211.37964,592.739481 C1197.39018,602.021779 1181.50855,607.000967 1165,607.000967 C1112.56472,607.000967 1071,557.326055 1071,497.000967 C1071,436.675878 1112.56472,387.000967 1165,387.000967 Z" id="logo-dark"></path>
        </g>
    </g>
</svg>